<?xml version="1.0" standalone="no"?>
<!DOCTYPE svg PUBLIC "-//W3C//DTD SVG 20010904//EN"
 "http://www.w3.org/TR/2001/REC-SVG-20010904/DTD/svg10.dtd">
<svg version="1.0" xmlns="http://www.w3.org/2000/svg"
 width="600.000000pt" height="600.000000pt" viewBox="0 0 600.000000 600.000000"
 preserveAspectRatio="xMidYMid meet">

<g transform="translate(0.000000,600.000000) scale(0.100000,-0.100000)"
fill="#000000" stroke="none">
<path d="M0 3000 l0 -3000 3000 0 3000 0 0 3000 0 3000 -3000 0 -3000 0 0
-3000z m2748 343 c3 -35 35 -65 58 -56 15 5 44 -13 44 -28 0 -4 -16 -11 -35
-15 -59 -11 -92 21 -108 104 -6 30 -5 33 16 30 17 -2 23 -11 25 -35z m542 12
c0 -39 -26 -92 -50 -105 -19 -10 -90 -6 -90 5 0 22 17 35 44 35 39 0 56 15 56
50 0 30 7 40 27 40 7 0 13 -11 13 -25z m-250 -150 c27 -32 -11 -173 -43 -163
-36 12 -62 139 -35 166 17 17 63 15 78 -3z m-696 -607 c-9 -13 -11 -26 -13
-108 -2 -55 -18 -36 -27 32 -5 35 -2 48 16 71 22 27 40 31 24 5z m1328 5 c25
-28 30 -59 18 -104 -15 -56 -30 -33 -23 36 4 40 2 55 -12 68 -9 9 -12 17 -7
17 5 0 16 -8 24 -17z m-1216 -5 c4 -6 3 -8 -3 -5 -22 14 -36 -22 -30 -76 9
-70 -6 -93 -22 -33 -12 49 -3 92 26 114 20 15 20 15 29 0z m1134 -19 c11 -20
13 -89 4 -113 -14 -35 -23 -12 -21 51 1 46 -2 68 -10 70 -7 3 -13 9 -13 14 0
14 30 -2 40 -22z m-1064 -11 c-11 -15 -16 -47 -17 -93 l-1 -70 -15 46 c-18 53
-12 90 17 119 27 27 35 25 16 -2z m961 0 c30 -33 36 -61 23 -110 -10 -34 -14
-39 -21 -26 -5 9 -7 35 -4 57 2 22 0 43 -5 46 -5 3 -7 12 -4 20 4 9 -3 18 -17
24 -15 6 -18 10 -8 10 8 1 25 -9 36 -21z m-907 -193 c0 -11 -32 -70 -48 -87
-8 -10 -23 -18 -32 -18 -22 0 -67 35 -82 63 -9 18 -6 17 17 -5 28 -28 75 -35
75 -11 0 6 5 15 12 19 7 4 8 3 4 -4 -4 -7 -5 -12 -2 -12 3 0 12 14 21 30 13
26 35 41 35 25z m860 -6 c0 -5 4 -7 10 -4 5 3 7 0 5 -8 -7 -16 28 -50 57 -54
13 -2 33 8 51 24 25 24 28 25 18 6 -14 -28 -59 -63 -81 -63 -18 0 -70 53 -70
70 0 5 -3 15 -6 24 -3 9 -1 16 5 16 6 0 11 -5 11 -11z"/>
</g>
</svg>
